<svg width="25" height="24" viewBox="0 0 25 24" fill="none" xmlns="http://www.w3.org/2000/svg">
<path d="M17.0571 3.24984C18.2648 3.25331 19.4219 3.71539 20.2759 4.53517C21.1298 5.35495 21.6111 6.46582 21.6147 7.62516V16.3748C21.6111 17.5342 21.1298 18.6451 20.2759 19.4648C19.4219 20.2846 18.2648 20.7467 17.0571 20.7502H7.94287C6.73523 20.7467 5.57807 20.2846 4.72413 19.4648C3.87019 18.6451 3.38886 17.5342 3.38525 16.3748V7.62516C3.38886 6.46582 3.87019 5.35495 4.72413 4.53517C5.57807 3.71539 6.73523 3.25331 7.94287 3.24984H17.0571ZM17.0571 1.5H7.94287C4.43359 1.5 1.5625 4.25625 1.5625 7.62516V16.3748C1.5625 19.7437 4.43359 22.5 7.94287 22.5H17.0571C20.5664 22.5 23.4375 19.7437 23.4375 16.3748V7.62516C23.4375 4.25625 20.5664 1.5 17.0571 1.5Z" fill="black"/>
<path d="M18.4243 7.62512C18.1539 7.62512 17.8896 7.54815 17.6647 7.40393C17.4399 7.25971 17.2647 7.05472 17.1612 6.81489C17.0577 6.57507 17.0306 6.31117 17.0834 6.05657C17.1362 5.80197 17.2664 5.5681 17.4576 5.38454C17.6488 5.20099 17.8924 5.07599 18.1576 5.02534C18.4228 4.9747 18.6977 5.00069 18.9475 5.10003C19.1973 5.19937 19.4109 5.3676 19.5611 5.58344C19.7113 5.79928 19.7915 6.05303 19.7915 6.31262C19.7919 6.48509 19.7568 6.65593 19.6882 6.81533C19.6196 6.97474 19.519 7.11958 19.3919 7.24153C19.2649 7.36348 19.114 7.46014 18.948 7.52597C18.7819 7.5918 18.604 7.62549 18.4243 7.62512ZM12.5 8.49981C13.2211 8.49981 13.926 8.70509 14.5256 9.08969C15.1252 9.4743 15.5925 10.0209 15.8685 10.6605C16.1444 11.3001 16.2166 12.0038 16.0759 12.6828C15.9353 13.3618 15.588 13.9854 15.0781 14.475C14.5682 14.9645 13.9186 15.2978 13.2113 15.4329C12.504 15.5679 11.771 15.4986 11.1047 15.2337C10.4385 14.9688 9.86909 14.5201 9.46847 13.9445C9.06784 13.369 8.85401 12.6922 8.85401 12C8.85504 11.072 9.2395 10.1823 9.92304 9.52608C10.6066 8.86989 11.5333 8.5008 12.5 8.49981ZM12.5 6.74997C11.4184 6.74997 10.3611 7.05787 9.46173 7.63475C8.5624 8.21163 7.86145 9.03157 7.44754 9.99088C7.03362 10.9502 6.92532 12.0058 7.13633 13.0242C7.34735 14.0426 7.86819 14.9781 8.63301 15.7123C9.39783 16.4465 10.3723 16.9465 11.4331 17.1491C12.4939 17.3517 13.5935 17.2477 14.5928 16.8503C15.5921 16.453 16.4462 15.7801 17.0471 14.9167C17.648 14.0534 17.9688 13.0383 17.9688 12C17.9688 10.6076 17.3926 9.27222 16.367 8.28766C15.3414 7.30309 13.9504 6.74997 12.5 6.74997Z" fill="black"/>
</svg>
