<svg width="150" height="133" viewBox="0 0 150 133" fill="none" xmlns="http://www.w3.org/2000/svg">
<g filter="url(#filter0_d_23_80)">
<path d="M33.1049 8.50115L7.2016 53.3761C4.59143 57.898 4.52036 63.4518 7.01398 68.039L33.1751 116.164C35.8004 120.993 40.8569 124 46.3537 124H103.097C108.553 124 113.579 121.038 116.221 116.264L142.856 68.1419C145.424 63.5016 145.351 57.85 142.664 53.2776L116.288 8.39958C113.594 3.81524 108.674 1 103.356 1H46.0959C40.7365 1 35.7842 3.85949 33.1049 8.50115Z" fill="#003698"/>
<path d="M33.1049 8.50115L7.2016 53.3761C4.59143 57.898 4.52036 63.4518 7.01398 68.039L33.1751 116.164C35.8004 120.993 40.8569 124 46.3537 124H103.097C108.553 124 113.579 121.038 116.221 116.264L142.856 68.1419C145.424 63.5016 145.351 57.85 142.664 53.2776L116.288 8.39958C113.594 3.81524 108.674 1 103.356 1H46.0959C40.7365 1 35.7842 3.85949 33.1049 8.50115Z" stroke="white"/>
</g>
<defs>
<filter id="filter0_d_23_80" x="0.692638" y="0.5" width="148.54" height="132" filterUnits="userSpaceOnUse" color-interpolation-filters="sRGB">
<feFlood flood-opacity="0" result="BackgroundImageFix"/>
<feColorMatrix in="SourceAlpha" type="matrix" values="0 0 0 0 0 0 0 0 0 0 0 0 0 0 0 0 0 0 127 0" result="hardAlpha"/>
<feOffset dy="4"/>
<feGaussianBlur stdDeviation="2"/>
<feComposite in2="hardAlpha" operator="out"/>
<feColorMatrix type="matrix" values="0 0 0 0 0 0 0 0 0 0 0 0 0 0 0 0 0 0 0.25 0"/>
<feBlend mode="normal" in2="BackgroundImageFix" result="effect1_dropShadow_23_80"/>
<feBlend mode="normal" in="SourceGraphic" in2="effect1_dropShadow_23_80" result="shape"/>
</filter>
</defs>
</svg>
